<svg xmlns="http://www.w3.org/2000/svg" width="98.488" height="98.488"><path fill="#4caf50" d="M49.256 0h-.025A49.213 49.213 0 0 0 9.375 78.107L3.238 96.4l18.928-6.05A49.235 49.235 0 1 0 49.256 0Z" data-name="Path 55"/><path fill="#fafafa" d="M77.91 69.535c-1.188 3.355-5.9 6.137-9.664 6.95-2.573.548-5.934.985-17.248-3.706-14.472-6-23.791-20.7-24.517-21.655-.7-.954-5.848-7.787-5.848-14.853a15.721 15.721 0 0 1 5.035-11.985 7.155 7.155 0 0 1 5.035-1.767c.609 0 1.157.031 1.65.055 1.447.062 2.173.148 3.127 2.431 1.188 2.862 4.081 9.929 4.426 10.655a2.931 2.931 0 0 1 .209 2.665 8.51 8.51 0 0 1-1.594 2.259c-.726.837-1.416 1.477-2.142 2.376-.665.782-1.416 1.619-.579 3.065a43.709 43.709 0 0 0 7.99 9.929 36.2 36.2 0 0 0 11.548 7.122 3.114 3.114 0 0 0 3.472-.548 59.579 59.579 0 0 0 3.847-5.1 2.748 2.748 0 0 1 3.533-1.071c1.33.462 8.365 3.94 9.812 4.66s2.4 1.071 2.751 1.68.345 3.481-.843 6.838Z" data-name="Path 56"/></svg>